<svg width="31" height="31" viewBox="0 0 31 31" fill="none" xmlns="http://www.w3.org/2000/svg">
<path d="M21.1384 8.28467C18.6972 8.28467 17.6654 9.44959 15.9653 9.44959C14.2221 9.44959 12.8925 8.29314 10.777 8.29314C8.70632 8.29314 6.49818 9.55736 5.09591 11.711C3.12693 14.748 3.46114 20.4679 6.65015 25.3407C7.79085 27.0851 9.31421 29.0413 11.3123 29.0625H11.3486C13.0851 29.0625 13.6009 27.9255 15.9907 27.9121H16.027C18.3811 27.9121 18.8534 29.0559 20.5826 29.0559H20.6189C22.617 29.0347 24.2221 26.8671 25.3628 25.1294C26.1838 23.8797 26.4889 23.2525 27.1186 21.8387C22.5056 20.0877 21.7645 13.548 26.3267 11.0408C24.9341 9.29701 22.9772 8.28709 21.1324 8.28709L21.1384 8.28467Z" fill="#2D3748"/>
<path d="M20.6008 1.93896C19.1477 2.03766 17.4524 2.96281 16.4594 4.17072C15.5585 5.26541 14.8174 6.88928 15.108 8.4641H15.2243C16.7719 8.4641 18.3558 7.53228 19.2809 6.3383C20.1722 5.20184 20.8479 3.59129 20.6008 1.93896Z" fill="#2D3748"/>
</svg>
