<svg width="21" height="21" viewBox="0 0 21 21" fill="none" xmlns="http://www.w3.org/2000/svg">
<path d="M20.6796 8.88175L20.5737 8.43222H10.8031V12.5675H16.6409C16.0348 15.4457 13.2223 16.9607 10.9249 16.9607C9.25337 16.9607 7.49133 16.2575 6.32509 15.1274C5.70977 14.5216 5.21999 13.8004 4.88377 13.005C4.54755 12.2097 4.37151 11.3558 4.36571 10.4924C4.36571 8.7505 5.14852 7.00816 6.28759 5.86206C7.42665 4.71597 9.14696 4.07472 10.8574 4.07472C12.8163 4.07472 14.2202 5.11488 14.7452 5.58925L17.6838 2.66613C16.8218 1.90863 14.4537 -0.00012207 10.7627 -0.00012207C7.91509 -0.00012207 5.18462 1.09066 3.18868 3.08003C1.21899 5.03894 0.199463 7.87159 0.199463 10.4999C0.199463 13.1282 1.16415 15.8192 3.0729 17.7936C5.11243 19.8992 8.00087 20.9999 10.9751 20.9999C13.6812 20.9999 16.2462 19.9396 18.0743 18.0158C19.8715 16.1221 20.801 13.5017 20.801 10.7549C20.801 9.59847 20.6848 8.91175 20.6796 8.88175Z" fill="#2D3748"/>
</svg>
