<svg width="12" height="20" viewBox="0 0 12 20" fill="none" xmlns="http://www.w3.org/2000/svg">
<path d="M10.66 4.878V15H9.694C9.54467 15 9.41867 14.9767 9.316 14.93C9.218 14.8787 9.12233 14.7947 9.029 14.678L3.744 7.93C3.772 8.238 3.786 8.52267 3.786 8.784V15H2.127V4.878H3.114C3.19333 4.878 3.261 4.88267 3.317 4.892C3.37767 4.89667 3.429 4.91067 3.471 4.934C3.51767 4.95267 3.562 4.983 3.604 5.025C3.646 5.06233 3.69267 5.11367 3.744 5.179L9.05 11.955C9.036 11.7917 9.02433 11.6307 9.015 11.472C9.00567 11.3133 9.001 11.1663 9.001 11.031V4.878H10.66Z" fill="#25282B"/>
<line y1="7.5" x2="12" y2="7.5" stroke="#25282B"/>
<line y1="11.5" x2="12" y2="11.5" stroke="#25282B"/>
</svg>
